<?xml version="1.0" encoding="UTF-8" standalone="no"?>
<!-- Created with Inkscape (http://www.inkscape.org/) -->

<svg
   xmlns:ns0="http://www.iki.fi/pav/software/textext/"
   xmlns:dc="http://purl.org/dc/elements/1.1/"
   xmlns:cc="http://creativecommons.org/ns#"
   xmlns:rdf="http://www.w3.org/1999/02/22-rdf-syntax-ns#"
   xmlns:svg="http://www.w3.org/2000/svg"
   xmlns="http://www.w3.org/2000/svg"
   xmlns:xlink="http://www.w3.org/1999/xlink"
   xmlns:sodipodi="http://sodipodi.sourceforge.net/DTD/sodipodi-0.dtd"
   xmlns:inkscape="http://www.inkscape.org/namespaces/inkscape"
   width="508.75"
   height="228.7359"
   id="svg2"
   version="1.1"
   inkscape:version="0.48.4 r9939"
   sodipodi:docname="lv.svg">
  <sodipodi:namedview
     id="base"
     pagecolor="#ffffff"
     bordercolor="#666666"
     borderopacity="1.0"
     inkscape:pageopacity="0.0"
     inkscape:pageshadow="2"
     inkscape:zoom="1.7151203"
     inkscape:cx="239.52747"
     inkscape:cy="91.439803"
     inkscape:document-units="px"
     inkscape:current-layer="layer1"
     showgrid="false"
     inkscape:window-width="1600"
     inkscape:window-height="876"
     inkscape:window-x="0"
     inkscape:window-y="24"
     inkscape:window-maximized="1"
     fit-margin-top="15"
     fit-margin-left="15"
     fit-margin-right="15"
     fit-margin-bottom="15" />
  <defs
     id="defs4">
    <marker
       inkscape:stockid="Arrow1Lend"
       orient="auto"
       refY="0"
       refX="0"
       id="Arrow1Lend"
       style="overflow:visible">
      <path
         id="path4847"
         d="M 0,0 5,-5 -12.5,0 5,5 0,0 z"
         style="fill-rule:evenodd;stroke:#000000;stroke-width:1pt"
         transform="matrix(-0.8,0,0,-0.8,-10,0)"
         inkscape:connector-curvature="0" />
    </marker>
    <marker
       inkscape:stockid="Arrow1Lend"
       orient="auto"
       refY="0"
       refX="0"
       id="Arrow1Lend-0"
       style="overflow:visible">
      <path
         inkscape:connector-curvature="0"
         id="path4847-8"
         d="M 0,0 5,-5 -12.5,0 5,5 0,0 z"
         style="fill-rule:evenodd;stroke:#000000;stroke-width:1pt"
         transform="matrix(-0.8,0,0,-0.8,-10,0)" />
    </marker>
  </defs>
  <metadata
     id="metadata7">
    <rdf:RDF>
      <cc:Work
         rdf:about="">
        <dc:format>image/svg+xml</dc:format>
        <dc:type
           rdf:resource="http://purl.org/dc/dcmitype/StillImage" />
        <dc:title />
      </cc:Work>
    </rdf:RDF>
  </metadata>
  <g
     id="layer1"
     inkscape:groupmode="layer"
     inkscape:label="Layer 1"
     transform="translate(-45.375,-271.60785)">
    <path
       transform="matrix(0.81928071,0,0,0.81928071,130.17909,331.68739)"
       d="m 264.12142,127.64569 c 0,29.62486 -26.49558,53.64055 -59.17953,53.64055 -32.68394,0 -59.17952,-24.01569 -59.17952,-53.64055 0,-29.624858 26.49558,-53.640552 59.17952,-53.640552 32.68395,0 59.17953,24.015694 59.17953,53.640552 z"
       sodipodi:ry="53.640553"
       sodipodi:rx="59.179523"
       sodipodi:cy="127.64569"
       sodipodi:cx="204.94189"
       id="path2985"
       style="opacity:0.93999999;fill:none;stroke:#000000;stroke-width:3.05145717;stroke-miterlimit:4;stroke-opacity:1;stroke-dasharray:none;stroke-dashoffset:0"
       sodipodi:type="arc" />
    <rect
       y="385.1955"
       x="61.624081"
       height="98.310631"
       width="107.5718"
       id="rect3766-3"
       style="opacity:0.93999999;fill:none;stroke:#000000;stroke-width:2.5;stroke-miterlimit:4;stroke-opacity:1;stroke-dasharray:none;stroke-dashoffset:0" />
    <g
       id="g3827"
       ns0:preamble=""
       ns0:text="$\\epsilon_x$"
       transform="matrix(5.1252454,0,0,5.1252454,-1057.1639,-378.58974)">
      <defs
         id="defs3829">
        <g
           id="g3831">
          <symbol
             id="textext-b8ff4693-0"
             overflow="visible"
             style="overflow:visible">
            <path
               id="path3834"
               d=""
               style="stroke:none"
               inkscape:connector-curvature="0" />
          </symbol>
          <symbol
             id="textext-b8ff4693-1"
             overflow="visible"
             style="overflow:visible">
            <path
               id="path3837"
               d="m 2.96875,-2.25 c 0.15625,0 0.34375,0 0.34375,-0.171875 0,-0.140625 -0.125,-0.140625 -0.296875,-0.140625 l -1.609375,0 c 0.234375,-0.84375 0.796875,-1.421875 1.703125,-1.421875 l 0.3125,0 c 0.171875,0 0.328125,0 0.328125,-0.171875 0,-0.140625 -0.125,-0.140625 -0.296875,-0.140625 l -0.359375,0 c -1.296875,0 -2.625,1 -2.625,2.515625 0,1.109375 0.75,1.890625 1.796875,1.890625 0.65625,0 1.296875,-0.40625 1.296875,-0.515625 0,-0.015625 0,-0.125 -0.09375,-0.125 -0.015625,0 -0.046875,0 -0.125,0.046875 -0.3125,0.203125 -0.6875,0.375 -1.046875,0.375 -0.578125,0 -1.078125,-0.421875 -1.078125,-1.296875 0,-0.34375 0.078125,-0.734375 0.109375,-0.84375 z"
               style="stroke:none"
               inkscape:connector-curvature="0" />
          </symbol>
          <symbol
             id="textext-b8ff4693-2"
             overflow="visible"
             style="overflow:visible">
            <path
               id="path3840"
               d=""
               style="stroke:none"
               inkscape:connector-curvature="0" />
          </symbol>
          <symbol
             id="textext-b8ff4693-3"
             overflow="visible"
             style="overflow:visible">
            <path
               id="path3843"
               d="M 1.734375,-0.734375 C 1.671875,-0.5 1.4375,-0.125 1.078125,-0.125 c -0.015625,0 -0.234375,0 -0.375,-0.09375 0.28125,-0.09375 0.3125,-0.34375 0.3125,-0.390625 0,-0.15625 -0.125,-0.25 -0.28125,-0.25 -0.203125,0 -0.40625,0.15625 -0.40625,0.421875 0,0.34375 0.390625,0.5 0.734375,0.5 0.328125,0 0.609375,-0.1875 0.78125,-0.484375 C 2.015625,-0.0625 2.390625,0.0625 2.671875,0.0625 c 0.8125,0 1.234375,-0.859375 1.234375,-1.0625 0,-0.09375 -0.09375,-0.09375 -0.109375,-0.09375 -0.109375,0 -0.109375,0.046875 -0.140625,0.125 -0.140625,0.484375 -0.5625,0.84375 -0.953125,0.84375 -0.28125,0 -0.421875,-0.1875 -0.421875,-0.453125 0,-0.1875 0.171875,-0.8125 0.359375,-1.59375 C 2.78125,-2.703125 3.09375,-2.875 3.328125,-2.875 c 0.015625,0 0.21875,0 0.375,0.09375 -0.21875,0.0625 -0.3125,0.265625 -0.3125,0.390625 0,0.140625 0.125,0.25 0.28125,0.25 0.15625,0 0.390625,-0.125 0.390625,-0.421875 0,-0.390625 -0.453125,-0.515625 -0.71875,-0.515625 -0.359375,0 -0.640625,0.234375 -0.78125,0.5 -0.125,-0.28125 -0.453125,-0.5 -0.84375,-0.5 C 0.9375,-3.078125 0.5,-2.21875 0.5,-2 c 0,0.078125 0.09375,0.078125 0.109375,0.078125 0.09375,0 0.09375,-0.015625 0.140625,-0.109375 C 0.921875,-2.578125 1.359375,-2.875 1.703125,-2.875 1.9375,-2.875 2.125,-2.75 2.125,-2.421875 2.125,-2.28125 2.03125,-1.9375 1.96875,-1.6875 z"
               style="stroke:none"
               inkscape:connector-curvature="0" />
          </symbol>
        </g>
      </defs>
      <g
         id="textext-b8ff4693-4">
        <g
           id="g3846"
           style="fill:#000000;fill-opacity:1">
          <use
             id="use3848"
             y="134.765"
             x="223.43201"
             xlink:href="#textext-b8ff4693-1"
             width="744.09448"
             height="1052.3622" />
        </g>
        <g
           id="g3850"
           style="fill:#000000;fill-opacity:1">
          <use
             id="use3852"
             y="136.259"
             x="227.476"
             xlink:href="#textext-b8ff4693-3"
             width="744.09448"
             height="1052.3622" />
        </g>
      </g>
    </g>
    <g
       ns0:text="$\\epsilon_y$"
       ns0:preamble=""
       transform="matrix(5.1252454,0,0,5.1252454,-683.1735,-382.0733)"
       id="g3967">
      <defs
         id="defs3969">
        <g
           id="g3971">
          <symbol
             overflow="visible"
             id="textext-bde4c54f-0"
             style="overflow:visible">
            <path
               style="stroke:none"
               d=""
               id="path3974"
               inkscape:connector-curvature="0" />
          </symbol>
          <symbol
             overflow="visible"
             id="textext-bde4c54f-1"
             style="overflow:visible">
            <path
               style="stroke:none"
               d="m 2.96875,-2.25 c 0.15625,0 0.34375,0 0.34375,-0.171875 0,-0.140625 -0.125,-0.140625 -0.296875,-0.140625 l -1.609375,0 c 0.234375,-0.84375 0.796875,-1.421875 1.703125,-1.421875 l 0.3125,0 c 0.171875,0 0.328125,0 0.328125,-0.171875 0,-0.140625 -0.125,-0.140625 -0.296875,-0.140625 l -0.359375,0 c -1.296875,0 -2.625,1 -2.625,2.515625 0,1.109375 0.75,1.890625 1.796875,1.890625 0.65625,0 1.296875,-0.40625 1.296875,-0.515625 0,-0.015625 0,-0.125 -0.09375,-0.125 -0.015625,0 -0.046875,0 -0.125,0.046875 -0.3125,0.203125 -0.6875,0.375 -1.046875,0.375 -0.578125,0 -1.078125,-0.421875 -1.078125,-1.296875 0,-0.34375 0.078125,-0.734375 0.109375,-0.84375 z"
               id="path3977"
               inkscape:connector-curvature="0" />
          </symbol>
          <symbol
             overflow="visible"
             id="textext-bde4c54f-2"
             style="overflow:visible">
            <path
               style="stroke:none"
               d=""
               id="path3980"
               inkscape:connector-curvature="0" />
          </symbol>
          <symbol
             overflow="visible"
             id="textext-bde4c54f-3"
             style="overflow:visible">
            <path
               style="stroke:none"
               d="M 3.875,-2.625 C 3.90625,-2.71875 3.90625,-2.734375 3.90625,-2.78125 3.90625,-2.921875 3.796875,-3 3.671875,-3 3.59375,-3 3.46875,-2.96875 3.390625,-2.84375 3.359375,-2.796875 3.3125,-2.578125 3.28125,-2.4375 L 3.125,-1.859375 c -0.03125,0.171875 -0.25,1.046875 -0.28125,1.125 0,0 -0.3125,0.609375 -0.84375,0.609375 -0.484375,0 -0.484375,-0.453125 -0.484375,-0.578125 0,-0.375 0.15625,-0.8125 0.375,-1.359375 C 1.96875,-2.28125 2,-2.359375 2,-2.484375 2,-2.8125 1.71875,-3.078125 1.34375,-3.078125 0.640625,-3.078125 0.328125,-2.125 0.328125,-2 c 0,0.078125 0.09375,0.078125 0.125,0.078125 0.09375,0 0.09375,-0.03125 0.125,-0.109375 C 0.75,-2.609375 1.046875,-2.875 1.328125,-2.875 1.4375,-2.875 1.5,-2.796875 1.5,-2.640625 c 0,0.171875 -0.0625,0.3125 -0.09375,0.40625 C 1.0625,-1.375 1,-1.125 1,-0.8125 1,-0.703125 1,-0.375 1.265625,-0.140625 1.484375,0.03125 1.78125,0.0625 1.96875,0.0625 2.25,0.0625 2.5,-0.03125 2.71875,-0.25 2.640625,0.140625 2.5625,0.4375 2.265625,0.78125 2.078125,1 1.796875,1.21875 1.421875,1.21875 c -0.046875,0 -0.375,0 -0.515625,-0.21875 0.375,-0.046875 0.375,-0.375 0.375,-0.390625 0,-0.21875 -0.203125,-0.265625 -0.265625,-0.265625 -0.171875,0 -0.40625,0.140625 -0.40625,0.46875 0,0.34375 0.328125,0.609375 0.828125,0.609375 C 2.140625,1.421875 3,0.875 3.21875,0 z"
               id="path3983"
               inkscape:connector-curvature="0" />
          </symbol>
        </g>
      </defs>
      <g
         id="textext-bde4c54f-4">
        <g
           style="fill:#000000;fill-opacity:1"
           id="g3986">
          <use
             xlink:href="#textext-bde4c54f-1"
             x="223.43201"
             y="134.765"
             id="use3988"
             width="744.09448"
             height="1052.3622" />
        </g>
        <g
           style="fill:#000000;fill-opacity:1"
           id="g3990">
          <use
             xlink:href="#textext-bde4c54f-3"
             x="227.476"
             y="136.259"
             id="use3992"
             width="744.09448"
             height="1052.3622" />
        </g>
      </g>
    </g>
    <g
       id="g4139"
       transform="matrix(5.1252454,0,0,5.1252454,-1072.0819,-243.19515)"
       ns0:preamble=""
       ns0:text="$x^{obs}_{ij}$">
      <defs
         id="defs4141">
        <g
           id="g4143">
          <symbol
             id="textext-533820e9-0"
             overflow="visible"
             style="overflow:visible">
            <path
               id="path4146"
               d=""
               style="stroke:none"
               inkscape:connector-curvature="0" />
          </symbol>
          <symbol
             id="textext-533820e9-1"
             overflow="visible"
             style="overflow:visible">
            <path
               id="path4149"
               d="M 3.328125,-3.015625 C 3.390625,-3.265625 3.625,-4.1875 4.3125,-4.1875 c 0.046875,0 0.296875,0 0.5,0.125 C 4.53125,-4 4.34375,-3.765625 4.34375,-3.515625 c 0,0.15625 0.109375,0.34375 0.375,0.34375 0.21875,0 0.53125,-0.171875 0.53125,-0.578125 0,-0.515625 -0.578125,-0.65625 -0.921875,-0.65625 -0.578125,0 -0.921875,0.53125 -1.046875,0.75 -0.25,-0.65625 -0.78125,-0.75 -1.078125,-0.75 -1.03125,0 -1.609375,1.28125 -1.609375,1.53125 0,0.109375 0.109375,0.109375 0.125,0.109375 0.078125,0 0.109375,-0.03125 0.125,-0.109375 0.34375,-1.0625 1,-1.3125 1.34375,-1.3125 0.1875,0 0.53125,0.09375 0.53125,0.671875 0,0.3125 -0.171875,0.96875 -0.53125,2.375 -0.15625,0.609375 -0.515625,1.03125 -0.953125,1.03125 -0.0625,0 -0.28125,0 -0.5,-0.125 0.25,-0.0625 0.46875,-0.265625 0.46875,-0.546875 0,-0.265625 -0.21875,-0.34375 -0.359375,-0.34375 -0.3125,0 -0.546875,0.25 -0.546875,0.578125 0,0.453125 0.484375,0.65625 0.921875,0.65625 0.671875,0 1.03125,-0.703125 1.046875,-0.75 0.125,0.359375 0.484375,0.75 1.078125,0.75 1.03125,0 1.59375,-1.28125 1.59375,-1.53125 0,-0.109375 -0.078125,-0.109375 -0.109375,-0.109375 -0.09375,0 -0.109375,0.046875 -0.140625,0.109375 -0.328125,1.078125 -1,1.3125 -1.3125,1.3125 -0.390625,0 -0.546875,-0.3125 -0.546875,-0.65625 0,-0.21875 0.046875,-0.4375 0.15625,-0.875 z"
               style="stroke:none"
               inkscape:connector-curvature="0" />
          </symbol>
          <symbol
             id="textext-533820e9-2"
             overflow="visible"
             style="overflow:visible">
            <path
               id="path4152"
               d=""
               style="stroke:none"
               inkscape:connector-curvature="0" />
          </symbol>
          <symbol
             id="textext-533820e9-3"
             overflow="visible"
             style="overflow:visible">
            <path
               id="path4155"
               d="m 3.703125,-1.859375 c 0,-0.765625 -0.578125,-1.21875 -1.265625,-1.21875 -1.03125,0 -2,0.96875 -2,1.921875 0,0.703125 0.5,1.21875 1.265625,1.21875 1,0 2,-0.90625 2,-1.921875 z m -2,1.734375 c -0.34375,0 -0.6875,-0.21875 -0.6875,-0.78125 0,-0.28125 0.125,-0.96875 0.40625,-1.359375 C 1.71875,-2.703125 2.125,-2.875 2.4375,-2.875 c 0.375,0 0.6875,0.25 0.6875,0.765625 C 3.125,-1.9375 3.046875,-1.25 2.734375,-0.765625 2.46875,-0.34375 2.0625,-0.125 1.703125,-0.125 z"
               style="stroke:none"
               inkscape:connector-curvature="0" />
          </symbol>
          <symbol
             id="textext-533820e9-4"
             overflow="visible"
             style="overflow:visible">
            <path
               id="path4158"
               d="m 1.84375,-4.625 c 0,-0.015625 0.03125,-0.109375 0.03125,-0.109375 0,-0.046875 -0.03125,-0.109375 -0.125,-0.109375 -0.140625,0 -0.71875,0.0625 -0.890625,0.078125 -0.046875,0 -0.15625,0.015625 -0.15625,0.15625 0,0.09375 0.109375,0.09375 0.1875,0.09375 0.328125,0 0.328125,0.0625 0.328125,0.109375 0,0.046875 -0.0625,0.328125 -0.109375,0.484375 l -0.15625,0.640625 c -0.0625,0.25 -0.4375,1.765625 -0.453125,1.859375 -0.046875,0.171875 -0.046875,0.265625 -0.046875,0.34375 0,0.703125 0.453125,1.140625 1.03125,1.140625 0.875,0 1.796875,-0.9375 1.796875,-1.96875 0,-0.8125 -0.5625,-1.171875 -1.046875,-1.171875 -0.359375,0 -0.671875,0.203125 -0.875,0.390625 z m -0.359375,4.5 c -0.328125,0 -0.53125,-0.296875 -0.53125,-0.71875 0,-0.25 0.0625,-0.484375 0.265625,-1.28125 C 1.25,-2.25 1.25,-2.265625 1.390625,-2.421875 1.65625,-2.71875 1.96875,-2.875 2.21875,-2.875 c 0.265625,0 0.5,0.203125 0.5,0.671875 0,0.28125 -0.140625,1 -0.359375,1.40625 C 2.1875,-0.453125 1.84375,-0.125 1.484375,-0.125 z"
               style="stroke:none"
               inkscape:connector-curvature="0" />
          </symbol>
          <symbol
             id="textext-533820e9-5"
             overflow="visible"
             style="overflow:visible">
            <path
               id="path4161"
               d="m 3,-2.625 c -0.171875,0.046875 -0.296875,0.1875 -0.296875,0.328125 0,0.171875 0.140625,0.234375 0.234375,0.234375 0.078125,0 0.34375,-0.046875 0.34375,-0.40625 0,-0.453125 -0.5,-0.609375 -0.9375,-0.609375 -1.078125,0 -1.28125,0.8125 -1.28125,1.015625 0,0.265625 0.15625,0.4375 0.25,0.515625 0.171875,0.140625 0.296875,0.171875 0.78125,0.25 0.15625,0.03125 0.59375,0.109375 0.59375,0.453125 0,0.125 -0.078125,0.390625 -0.359375,0.5625 C 2.046875,-0.125 1.703125,-0.125 1.625,-0.125 1.34375,-0.125 0.953125,-0.1875 0.78125,-0.421875 1.015625,-0.453125 1.171875,-0.625 1.171875,-0.8125 c 0,-0.171875 -0.125,-0.265625 -0.265625,-0.265625 -0.203125,0 -0.40625,0.171875 -0.40625,0.46875 0,0.421875 0.4375,0.671875 1.109375,0.671875 1.296875,0 1.53125,-0.875 1.53125,-1.140625 0,-0.640625 -0.703125,-0.765625 -0.96875,-0.8125 -0.0625,-0.015625 -0.234375,-0.046875 -0.28125,-0.0625 -0.25,-0.046875 -0.375,-0.1875 -0.375,-0.34375 0,-0.15625 0.125,-0.34375 0.28125,-0.453125 0.1875,-0.109375 0.421875,-0.125 0.546875,-0.125 0.140625,0 0.5,0.015625 0.65625,0.25 z"
               style="stroke:none"
               inkscape:connector-curvature="0" />
          </symbol>
          <symbol
             id="textext-533820e9-6"
             overflow="visible"
             style="overflow:visible">
            <path
               id="path4164"
               d="m 2.265625,-4.359375 c 0,-0.109375 -0.09375,-0.265625 -0.28125,-0.265625 -0.1875,0 -0.390625,0.1875 -0.390625,0.390625 0,0.109375 0.078125,0.265625 0.28125,0.265625 0.1875,0 0.390625,-0.203125 0.390625,-0.390625 z M 0.84375,-0.8125 c -0.03125,0.09375 -0.0625,0.171875 -0.0625,0.296875 0,0.328125 0.265625,0.578125 0.65625,0.578125 0.6875,0 1,-0.953125 1,-1.0625 0,-0.09375 -0.09375,-0.09375 -0.109375,-0.09375 -0.09375,0 -0.109375,0.046875 -0.140625,0.125 -0.15625,0.5625 -0.453125,0.84375 -0.734375,0.84375 -0.140625,0 -0.171875,-0.09375 -0.171875,-0.25 0,-0.15625 0.046875,-0.28125 0.109375,-0.4375 C 1.46875,-1 1.546875,-1.1875 1.609375,-1.375 1.671875,-1.546875 1.9375,-2.171875 1.953125,-2.265625 1.984375,-2.328125 2,-2.40625 2,-2.484375 2,-2.8125 1.71875,-3.078125 1.34375,-3.078125 0.640625,-3.078125 0.328125,-2.125 0.328125,-2 c 0,0.078125 0.09375,0.078125 0.125,0.078125 0.09375,0 0.09375,-0.03125 0.125,-0.109375 C 0.75,-2.625 1.0625,-2.875 1.3125,-2.875 c 0.109375,0 0.171875,0.046875 0.171875,0.234375 0,0.171875 -0.03125,0.265625 -0.203125,0.703125 z"
               style="stroke:none"
               inkscape:connector-curvature="0" />
          </symbol>
          <symbol
             id="textext-533820e9-7"
             overflow="visible"
             style="overflow:visible">
            <path
               id="path4167"
               d="M 3.0625,-4.359375 C 3.0625,-4.46875 2.96875,-4.625 2.78125,-4.625 c -0.203125,0 -0.390625,0.203125 -0.390625,0.390625 0,0.109375 0.078125,0.265625 0.28125,0.265625 0.1875,0 0.390625,-0.1875 0.390625,-0.390625 z M 1.578125,0.34375 C 1.46875,0.828125 1.09375,1.21875 0.6875,1.21875 c -0.09375,0 -0.171875,0 -0.25,-0.03125 0.171875,-0.09375 0.234375,-0.25 0.234375,-0.359375 0,-0.171875 -0.140625,-0.25 -0.28125,-0.25 C 0.1875,0.578125 0,0.765625 0,0.984375 c 0,0.265625 0.265625,0.4375 0.6875,0.4375 0.421875,0 1.234375,-0.25 1.453125,-1.09375 l 0.625,-2.5 c 0.015625,-0.078125 0.03125,-0.140625 0.03125,-0.25 0,-0.375 -0.328125,-0.65625 -0.734375,-0.65625 -0.78125,0 -1.21875,0.96875 -1.21875,1.078125 0,0.078125 0.09375,0.078125 0.109375,0.078125 0.078125,0 0.09375,-0.015625 0.140625,-0.125 C 1.265625,-2.453125 1.625,-2.875 2.03125,-2.875 c 0.171875,0 0.234375,0.109375 0.234375,0.34375 0,0.078125 0,0.171875 -0.015625,0.203125 z"
               style="stroke:none"
               inkscape:connector-curvature="0" />
          </symbol>
        </g>
      </defs>
      <g
         id="textext-533820e9-8">
        <g
           id="g4170"
           style="fill:#000000;fill-opacity:1">
          <use
             id="use4172"
             y="134.765"
             x="223.43201"
             xlink:href="#textext-533820e9-1"
             width="744.09448"
             height="1052.3622" />
        </g>
        <g
           id="g4174"
           style="fill:#000000;fill-opacity:1">
          <use
             id="use4176"
             y="131.149"
             x="229.12601"
             xlink:href="#textext-533820e9-3"
             width="744.09448"
             height="1052.3622" />
          <use
             id="use4178"
             y="131.149"
             x="233.05853"
             xlink:href="#textext-533820e9-4"
             width="744.09448"
             height="1052.3622" />
          <use
             id="use4180"
             y="131.149"
             x="236.56216"
             xlink:href="#textext-533820e9-5"
             width="744.09448"
             height="1052.3622" />
        </g>
        <g
           id="g4182"
           style="fill:#000000;fill-opacity:1">
          <use
             id="use4184"
             y="137.358"
             x="229.12601"
             xlink:href="#textext-533820e9-6"
             width="744.09448"
             height="1052.3622" />
          <use
             id="use4186"
             y="137.358"
             x="231.94481"
             xlink:href="#textext-533820e9-7"
             width="744.09448"
             height="1052.3622" />
        </g>
      </g>
    </g>
    <g
       ns0:text="$x_{i}$"
       ns0:preamble=""
       transform="matrix(5.1252454,0,0,5.1252454,-868.1849,-243.82416)"
       id="g4430">
      <defs
         id="defs4432">
        <g
           id="g4434">
          <symbol
             style="overflow:visible"
             overflow="visible"
             id="textext-8e7c4ce9-0">
            <path
               inkscape:connector-curvature="0"
               style="stroke:none"
               d=""
               id="path4437" />
          </symbol>
          <symbol
             style="overflow:visible"
             overflow="visible"
             id="textext-8e7c4ce9-1">
            <path
               inkscape:connector-curvature="0"
               style="stroke:none"
               d="M 3.328125,-3.015625 C 3.390625,-3.265625 3.625,-4.1875 4.3125,-4.1875 c 0.046875,0 0.296875,0 0.5,0.125 C 4.53125,-4 4.34375,-3.765625 4.34375,-3.515625 c 0,0.15625 0.109375,0.34375 0.375,0.34375 0.21875,0 0.53125,-0.171875 0.53125,-0.578125 0,-0.515625 -0.578125,-0.65625 -0.921875,-0.65625 -0.578125,0 -0.921875,0.53125 -1.046875,0.75 -0.25,-0.65625 -0.78125,-0.75 -1.078125,-0.75 -1.03125,0 -1.609375,1.28125 -1.609375,1.53125 0,0.109375 0.109375,0.109375 0.125,0.109375 0.078125,0 0.109375,-0.03125 0.125,-0.109375 0.34375,-1.0625 1,-1.3125 1.34375,-1.3125 0.1875,0 0.53125,0.09375 0.53125,0.671875 0,0.3125 -0.171875,0.96875 -0.53125,2.375 -0.15625,0.609375 -0.515625,1.03125 -0.953125,1.03125 -0.0625,0 -0.28125,0 -0.5,-0.125 0.25,-0.0625 0.46875,-0.265625 0.46875,-0.546875 0,-0.265625 -0.21875,-0.34375 -0.359375,-0.34375 -0.3125,0 -0.546875,0.25 -0.546875,0.578125 0,0.453125 0.484375,0.65625 0.921875,0.65625 0.671875,0 1.03125,-0.703125 1.046875,-0.75 0.125,0.359375 0.484375,0.75 1.078125,0.75 1.03125,0 1.59375,-1.28125 1.59375,-1.53125 0,-0.109375 -0.078125,-0.109375 -0.109375,-0.109375 -0.09375,0 -0.109375,0.046875 -0.140625,0.109375 -0.328125,1.078125 -1,1.3125 -1.3125,1.3125 -0.390625,0 -0.546875,-0.3125 -0.546875,-0.65625 0,-0.21875 0.046875,-0.4375 0.15625,-0.875 z"
               id="path4440" />
          </symbol>
          <symbol
             style="overflow:visible"
             overflow="visible"
             id="textext-8e7c4ce9-2">
            <path
               inkscape:connector-curvature="0"
               style="stroke:none"
               d=""
               id="path4443" />
          </symbol>
          <symbol
             style="overflow:visible"
             overflow="visible"
             id="textext-8e7c4ce9-3">
            <path
               inkscape:connector-curvature="0"
               style="stroke:none"
               d="m 2.265625,-4.359375 c 0,-0.109375 -0.09375,-0.265625 -0.28125,-0.265625 -0.1875,0 -0.390625,0.1875 -0.390625,0.390625 0,0.109375 0.078125,0.265625 0.28125,0.265625 0.1875,0 0.390625,-0.203125 0.390625,-0.390625 z M 0.84375,-0.8125 c -0.03125,0.09375 -0.0625,0.171875 -0.0625,0.296875 0,0.328125 0.265625,0.578125 0.65625,0.578125 0.6875,0 1,-0.953125 1,-1.0625 0,-0.09375 -0.09375,-0.09375 -0.109375,-0.09375 -0.09375,0 -0.109375,0.046875 -0.140625,0.125 -0.15625,0.5625 -0.453125,0.84375 -0.734375,0.84375 -0.140625,0 -0.171875,-0.09375 -0.171875,-0.25 0,-0.15625 0.046875,-0.28125 0.109375,-0.4375 C 1.46875,-1 1.546875,-1.1875 1.609375,-1.375 1.671875,-1.546875 1.9375,-2.171875 1.953125,-2.265625 1.984375,-2.328125 2,-2.40625 2,-2.484375 2,-2.8125 1.71875,-3.078125 1.34375,-3.078125 0.640625,-3.078125 0.328125,-2.125 0.328125,-2 c 0,0.078125 0.09375,0.078125 0.125,0.078125 0.09375,0 0.09375,-0.03125 0.125,-0.109375 C 0.75,-2.625 1.0625,-2.875 1.3125,-2.875 c 0.109375,0 0.171875,0.046875 0.171875,0.234375 0,0.171875 -0.03125,0.265625 -0.203125,0.703125 z"
               id="path4446" />
          </symbol>
        </g>
      </defs>
      <g
         id="textext-8e7c4ce9-4">
        <g
           style="fill:#000000;fill-opacity:1"
           id="g4449">
          <use
             height="1052.3622"
             width="744.09448"
             xlink:href="#textext-8e7c4ce9-1"
             x="223.43201"
             y="134.765"
             id="use4451" />
        </g>
        <g
           style="fill:#000000;fill-opacity:1"
           id="g4453">
          <use
             height="1052.3622"
             width="744.09448"
             xlink:href="#textext-8e7c4ce9-3"
             x="229.12601"
             y="136.259"
             id="use4455" />
        </g>
      </g>
    </g>
    <g
       id="g4692"
       transform="matrix(5.1252454,0,0,5.1252454,-683.67228,-248.82029)"
       ns0:preamble=""
       ns0:text="$y_{i}$">
      <defs
         id="defs4694">
        <g
           id="g4696">
          <symbol
             id="textext-44048315-0"
             overflow="visible"
             style="overflow:visible">
            <path
               id="path4699"
               d=""
               style="stroke:none"
               inkscape:connector-curvature="0" />
          </symbol>
          <symbol
             id="textext-44048315-1"
             overflow="visible"
             style="overflow:visible">
            <path
               id="path4702"
               d="m 4.84375,-3.796875 c 0.046875,-0.140625 0.046875,-0.15625 0.046875,-0.234375 0,-0.171875 -0.140625,-0.265625 -0.296875,-0.265625 -0.09375,0 -0.25,0.0625 -0.34375,0.203125 -0.015625,0.0625 -0.109375,0.359375 -0.140625,0.546875 -0.078125,0.25 -0.140625,0.53125 -0.203125,0.796875 l -0.453125,1.796875 c -0.03125,0.140625 -0.46875,0.84375 -1.125,0.84375 -0.5,0 -0.609375,-0.4375 -0.609375,-0.8125 C 1.71875,-1.375 1.890625,-2 2.21875,-2.875 2.375,-3.28125 2.421875,-3.390625 2.421875,-3.59375 c 0,-0.4375 -0.3125,-0.8125 -0.8125,-0.8125 -0.953125,0 -1.3125,1.453125 -1.3125,1.53125 0,0.109375 0.09375,0.109375 0.109375,0.109375 0.109375,0 0.109375,-0.03125 0.15625,-0.1875 0.28125,-0.9375 0.671875,-1.234375 1.015625,-1.234375 0.078125,0 0.25,0 0.25,0.3125 0,0.25 -0.109375,0.515625 -0.171875,0.703125 -0.40625,1.0625 -0.578125,1.625 -0.578125,2.09375 0,0.890625 0.625,1.1875 1.21875,1.1875 0.390625,0 0.71875,-0.171875 1,-0.453125 -0.125,0.515625 -0.25,1.015625 -0.640625,1.546875 -0.265625,0.328125 -0.640625,0.625 -1.09375,0.625 -0.140625,0 -0.59375,-0.03125 -0.765625,-0.421875 0.15625,0 0.296875,0 0.421875,-0.125 C 1.328125,1.203125 1.421875,1.0625 1.421875,0.875 1.421875,0.5625 1.15625,0.53125 1.0625,0.53125 0.828125,0.53125 0.5,0.6875 0.5,1.171875 c 0,0.5 0.4375,0.875 1.0625,0.875 1.015625,0 2.046875,-0.90625 2.328125,-2.03125 z"
               style="stroke:none"
               inkscape:connector-curvature="0" />
          </symbol>
          <symbol
             id="textext-44048315-2"
             overflow="visible"
             style="overflow:visible">
            <path
               id="path4705"
               d=""
               style="stroke:none"
               inkscape:connector-curvature="0" />
          </symbol>
          <symbol
             id="textext-44048315-3"
             overflow="visible"
             style="overflow:visible">
            <path
               id="path4708"
               d="m 2.265625,-4.359375 c 0,-0.109375 -0.09375,-0.265625 -0.28125,-0.265625 -0.1875,0 -0.390625,0.1875 -0.390625,0.390625 0,0.109375 0.078125,0.265625 0.28125,0.265625 0.1875,0 0.390625,-0.203125 0.390625,-0.390625 z M 0.84375,-0.8125 c -0.03125,0.09375 -0.0625,0.171875 -0.0625,0.296875 0,0.328125 0.265625,0.578125 0.65625,0.578125 0.6875,0 1,-0.953125 1,-1.0625 0,-0.09375 -0.09375,-0.09375 -0.109375,-0.09375 -0.09375,0 -0.109375,0.046875 -0.140625,0.125 -0.15625,0.5625 -0.453125,0.84375 -0.734375,0.84375 -0.140625,0 -0.171875,-0.09375 -0.171875,-0.25 0,-0.15625 0.046875,-0.28125 0.109375,-0.4375 C 1.46875,-1 1.546875,-1.1875 1.609375,-1.375 1.671875,-1.546875 1.9375,-2.171875 1.953125,-2.265625 1.984375,-2.328125 2,-2.40625 2,-2.484375 2,-2.8125 1.71875,-3.078125 1.34375,-3.078125 0.640625,-3.078125 0.328125,-2.125 0.328125,-2 c 0,0.078125 0.09375,0.078125 0.125,0.078125 0.09375,0 0.09375,-0.03125 0.125,-0.109375 C 0.75,-2.625 1.0625,-2.875 1.3125,-2.875 c 0.109375,0 0.171875,0.046875 0.171875,0.234375 0,0.171875 -0.03125,0.265625 -0.203125,0.703125 z"
               style="stroke:none"
               inkscape:connector-curvature="0" />
          </symbol>
        </g>
      </defs>
      <g
         id="textext-44048315-4">
        <g
           id="g4711"
           style="fill:#000000;fill-opacity:1">
          <use
             id="use4713"
             y="134.765"
             x="223.43201"
             xlink:href="#textext-44048315-1"
             width="744.09448"
             height="1052.3622" />
        </g>
        <g
           id="g4715"
           style="fill:#000000;fill-opacity:1">
          <use
             id="use4717"
             y="136.259"
             x="228.317"
             xlink:href="#textext-44048315-3"
             width="744.09448"
             height="1052.3622" />
        </g>
      </g>
    </g>
    <rect
       y="385.77789"
       x="430.28824"
       height="98.310631"
       width="107.5718"
       id="rect3766-3-7"
       style="opacity:0.93999999;fill:none;stroke:#000000;stroke-width:2.5;stroke-miterlimit:4;stroke-opacity:1;stroke-dasharray:none;stroke-dashoffset:0" />
    <path
       style="fill:none;stroke:#000000;stroke-width:1px;stroke-linecap:butt;stroke-linejoin:miter;stroke-opacity:1;marker-end:url(#Arrow1Lend)"
       d="m 109.03025,327.04862 0,57.7219"
       id="path4838"
       inkscape:connector-curvature="0" />
    <path
       style="fill:none;stroke:#000000;stroke-width:1px;stroke-linecap:butt;stroke-linejoin:miter;stroke-opacity:1;marker-end:url(#Arrow1Lend)"
       d="m 484.94891,326.4249 0,57.7219"
       id="path4838-5"
       inkscape:connector-curvature="0" />
    <path
       style="fill:none;stroke:#000000;stroke-width:1px;stroke-linecap:butt;stroke-linejoin:miter;stroke-opacity:1;marker-end:url(#Arrow1Lend-0)"
       d="m 248.37908,436.07887 -78.12863,0"
       id="path5308"
       inkscape:connector-curvature="0" />
    <path
       style="fill:none;stroke:#000000;stroke-width:1px;stroke-linecap:butt;stroke-linejoin:miter;stroke-opacity:1;marker-end:url(#Arrow1Lend-0)"
       d="m 347.4975,436.66192 81.62692,0"
       id="path5494"
       inkscape:connector-curvature="0" />
  </g>
</svg>
